<svg id="logo" xmlns="http://www.w3.org/2000/svg" width="93.22" height="23.05" viewBox="0 0 93.22 23.05">
  <path id="Pfad_126" data-name="Pfad 126" d="M14.97-6.6a5.366,5.366,0,0,1-2.43,4.38A8.983,8.983,0,0,1,6.99-.39,7.733,7.733,0,0,1,1.965-1.935a4.253,4.253,0,0,1-1.9-3.2q0-1.65.93-1.65a2.274,2.274,0,0,1,1.5.72A20.825,20.825,0,0,0,4.245-4.62,3.619,3.619,0,0,0,6.45-3.9,5.267,5.267,0,0,0,9.24-4.92Q10.8-5.94,10.8-6.63T9.1-8.94q-1.7-1.62-3.39-3.345t-1.7-2.67a6.958,6.958,0,0,1,.345-2.055,3.188,3.188,0,0,1,.855-1.53A14.267,14.267,0,0,1,9.4-21.285,11.258,11.258,0,0,1,13.92-22.44a2.293,2.293,0,0,1,1.89.975,3.282,3.282,0,0,1,.75,2.025q0,.42-.675.675a14.128,14.128,0,0,1-1.95.525,16.947,16.947,0,0,0-2.6.78q-3.06,1.14-3.06,1.92,0,.36,1.05,1.305t2.3,1.98a12.051,12.051,0,0,1,2.3,2.61A5.508,5.508,0,0,1,14.97-6.6Zm20.34-9.24a3.8,3.8,0,0,1,1.845.57q1.005.57,1.005,1.2a28.506,28.506,0,0,1-1.02,4.26,19.566,19.566,0,0,1-3.195,6.525Q31.77-.39,30.72-.39a2.606,2.606,0,0,1-1.26-.6,3.6,3.6,0,0,1-1.2-1.35q-.63-1.23-.63-7.2a25.836,25.836,0,0,1-2.94,6.675Q23.04-.39,22.02-.39a2.668,2.668,0,0,1-1.305-.6,2.916,2.916,0,0,1-1.1-1.2,29.281,29.281,0,0,1-1.26-6.18,57.819,57.819,0,0,1-.6-6.24q0-1.23.84-1.23a3.275,3.275,0,0,1,2.34,1.38,3.932,3.932,0,0,1,1.2,2.16q0,4.35.09,6.93A21.577,21.577,0,0,0,24.4-9.93q.975-2.73,1.575-4.32t1.26-1.59a3.757,3.757,0,0,1,2.61,1.275,3.692,3.692,0,0,1,1.29,2.6q0,.6-.195,2.49T30.75-6.63a8.728,8.728,0,0,0,.12,1.59A8.257,8.257,0,0,0,32.6-7.95a21.72,21.72,0,0,0,1.065-3.63Q34.5-15.84,35.31-15.84Zm5.85-6.57a15.743,15.743,0,0,1,5.115.96,23.3,23.3,0,0,1,5.16,2.52,15.215,15.215,0,0,1,3.99,3.75,7.458,7.458,0,0,1,1.6,4.44q0,1.68-2.715,4.185A28.114,28.114,0,0,1,48.03-2.22,13.686,13.686,0,0,1,42.18-.39q-.51,0-1.635-1.335A3.91,3.91,0,0,1,39.42-3.69a38.853,38.853,0,0,1,1.635-6.855Q42.69-16.17,43.08-18.27a6.888,6.888,0,0,1-1.8-1.725,3.147,3.147,0,0,1-.72-1.71Q40.56-22.41,41.16-22.41ZM52.71-11.58q0-.96-1.77-2.535a15.958,15.958,0,0,0-4.11-2.625q-.18,2.25-2.55,9.63-.12.39-.375,1.275T43.53-4.65a21.684,21.684,0,0,0,6.06-3.345Q52.71-10.35,52.71-11.58Zm12.57-1.41q1.59,0,3.42-.165t2.265-.165a1.053,1.053,0,0,1,.69.21.639.639,0,0,1,.255.51q0,1.32-2.49,2.1a20.627,20.627,0,0,1-5.31.9,21.546,21.546,0,0,0-1.17,4.59.451.451,0,0,0,.51.51,29.252,29.252,0,0,0,7.05-.9,10.959,10.959,0,0,1,1.41-.33q.57,0,.57.81,0,1.08-1.59,2.1A13.388,13.388,0,0,1,66.9-1.2a19.375,19.375,0,0,1-4.71.6A3.562,3.562,0,0,1,59.7-1.635a3.221,3.221,0,0,1-1.11-2.43,38.79,38.79,0,0,1,1.545-7,39.915,39.915,0,0,0,1.635-8.46,1.374,1.374,0,0,1-.03-.36,1.5,1.5,0,0,1,.12-.66q.33-.84,1.83-1.065a42.827,42.827,0,0,1,5.4-.225q6.48,0,6.48,1.44,0,.93-1.59,1.29a29.372,29.372,0,0,1-2.97.45,33.961,33.961,0,0,0-5.19.96,18.381,18.381,0,0,1-.72,4.71Zm24.45-9.36a2.9,2.9,0,0,1,1.695.615q.855.615.855,1.185a4.1,4.1,0,0,1-.225,1.26,14.849,14.849,0,0,1-.72,1.725q-.5,1.035-.99,2.01t-1.305,2.55q-.81,1.575-1.41,2.805T86.3-7.29Q85.56-5.61,85.08-4.545T84.06-2.46Q83.01-.42,82.02-.42a2.3,2.3,0,0,1-1.245-.66A3.539,3.539,0,0,1,79.71-2.4a74.809,74.809,0,0,1-2.31-9.63,73.451,73.451,0,0,1-1.44-8.82q0-1.5.81-1.5a3.384,3.384,0,0,1,2.1.87,5.724,5.724,0,0,1,1.68,2.31,12.19,12.19,0,0,1,.465,2.535q.225,1.935.54,4.8t.675,4.9q3.03-8.22,4.785-11.82T89.73-22.35Z" transform="translate(0.94 23.44)" fill="#fff"/>
  <path id="Pfad_125" data-name="Pfad 125" d="M14.97-6.6a5.366,5.366,0,0,1-2.43,4.38A8.983,8.983,0,0,1,6.99-.39,7.733,7.733,0,0,1,1.965-1.935a4.253,4.253,0,0,1-1.9-3.2q0-1.65.93-1.65a2.274,2.274,0,0,1,1.5.72A20.825,20.825,0,0,0,4.245-4.62,3.619,3.619,0,0,0,6.45-3.9,5.267,5.267,0,0,0,9.24-4.92Q10.8-5.94,10.8-6.63T9.1-8.94q-1.7-1.62-3.39-3.345t-1.7-2.67a6.958,6.958,0,0,1,.345-2.055,3.188,3.188,0,0,1,.855-1.53A14.267,14.267,0,0,1,9.4-21.285,11.258,11.258,0,0,1,13.92-22.44a2.293,2.293,0,0,1,1.89.975,3.282,3.282,0,0,1,.75,2.025q0,.42-.675.675a14.128,14.128,0,0,1-1.95.525,16.947,16.947,0,0,0-2.6.78q-3.06,1.14-3.06,1.92,0,.36,1.05,1.305t2.3,1.98a12.051,12.051,0,0,1,2.3,2.61A5.508,5.508,0,0,1,14.97-6.6Zm20.34-9.24a3.8,3.8,0,0,1,1.845.57q1.005.57,1.005,1.2a28.506,28.506,0,0,1-1.02,4.26,19.566,19.566,0,0,1-3.195,6.525Q31.77-.39,30.72-.39a2.606,2.606,0,0,1-1.26-.6,3.6,3.6,0,0,1-1.2-1.35q-.63-1.23-.63-7.2a25.836,25.836,0,0,1-2.94,6.675Q23.04-.39,22.02-.39a2.668,2.668,0,0,1-1.305-.6,2.916,2.916,0,0,1-1.1-1.2,29.281,29.281,0,0,1-1.26-6.18,57.819,57.819,0,0,1-.6-6.24q0-1.23.84-1.23a3.275,3.275,0,0,1,2.34,1.38,3.932,3.932,0,0,1,1.2,2.16q0,4.35.09,6.93A21.577,21.577,0,0,0,24.4-9.93q.975-2.73,1.575-4.32t1.26-1.59a3.757,3.757,0,0,1,2.61,1.275,3.692,3.692,0,0,1,1.29,2.6q0,.6-.195,2.49T30.75-6.63a8.728,8.728,0,0,0,.12,1.59A8.257,8.257,0,0,0,32.6-7.95a21.72,21.72,0,0,0,1.065-3.63Q34.5-15.84,35.31-15.84Zm5.85-6.57a15.743,15.743,0,0,1,5.115.96,23.3,23.3,0,0,1,5.16,2.52,15.215,15.215,0,0,1,3.99,3.75,7.458,7.458,0,0,1,1.6,4.44q0,1.68-2.715,4.185A28.114,28.114,0,0,1,48.03-2.22,13.686,13.686,0,0,1,42.18-.39q-.51,0-1.635-1.335A3.91,3.91,0,0,1,39.42-3.69a38.853,38.853,0,0,1,1.635-6.855Q42.69-16.17,43.08-18.27a6.888,6.888,0,0,1-1.8-1.725,3.147,3.147,0,0,1-.72-1.71Q40.56-22.41,41.16-22.41ZM52.71-11.58q0-.96-1.77-2.535a15.958,15.958,0,0,0-4.11-2.625q-.18,2.25-2.55,9.63-.12.39-.375,1.275T43.53-4.65a21.684,21.684,0,0,0,6.06-3.345Q52.71-10.35,52.71-11.58Zm12.57-1.41q1.59,0,3.42-.165t2.265-.165a1.053,1.053,0,0,1,.69.21.639.639,0,0,1,.255.51q0,1.32-2.49,2.1a20.627,20.627,0,0,1-5.31.9,21.546,21.546,0,0,0-1.17,4.59.451.451,0,0,0,.51.51,29.252,29.252,0,0,0,7.05-.9,10.959,10.959,0,0,1,1.41-.33q.57,0,.57.81,0,1.08-1.59,2.1A13.388,13.388,0,0,1,66.9-1.2a19.375,19.375,0,0,1-4.71.6A3.562,3.562,0,0,1,59.7-1.635a3.221,3.221,0,0,1-1.11-2.43,38.79,38.79,0,0,1,1.545-7,39.915,39.915,0,0,0,1.635-8.46,1.374,1.374,0,0,1-.03-.36,1.5,1.5,0,0,1,.12-.66q.33-.84,1.83-1.065a42.827,42.827,0,0,1,5.4-.225q6.48,0,6.48,1.44,0,.93-1.59,1.29a29.372,29.372,0,0,1-2.97.45,33.961,33.961,0,0,0-5.19.96,18.381,18.381,0,0,1-.72,4.71Zm24.45-9.36a2.9,2.9,0,0,1,1.695.615q.855.615.855,1.185a4.1,4.1,0,0,1-.225,1.26,14.849,14.849,0,0,1-.72,1.725q-.5,1.035-.99,2.01t-1.305,2.55q-.81,1.575-1.41,2.805T86.3-7.29Q85.56-5.61,85.08-4.545T84.06-2.46Q83.01-.42,82.02-.42a2.3,2.3,0,0,1-1.245-.66A3.539,3.539,0,0,1,79.71-2.4a74.809,74.809,0,0,1-2.31-9.63,73.451,73.451,0,0,1-1.44-8.82q0-1.5.81-1.5a3.384,3.384,0,0,1,2.1.87,5.724,5.724,0,0,1,1.68,2.31,12.19,12.19,0,0,1,.465,2.535q.225,1.935.54,4.8t.675,4.9q3.03-8.22,4.785-11.82T89.73-22.35Z" transform="translate(-0.06 22.44)" fill="#ed2b85"/>
</svg>
